<?xml version="1.0" encoding="UTF-8" standalone="no"?>
<svg width="101px" height="52px" viewBox="0 0 564 288" version="1.1" xmlns="http://www.w3.org/2000/svg" xmlns:xlink="http://www.w3.org/1999/xlink" xmlns:sketch="http://www.bohemiancoding.com/sketch/ns">
    <!-- Generator: Sketch 3.2.2 (9983) - http://www.bohemiancoding.com/sketch -->
    <title>EMPOWER_rgb_logo</title>
    <desc>Created with Sketch.</desc>
    <defs></defs>
    <g id="Page-1" stroke="none" stroke-width="1" fill="none" fill-rule="evenodd" sketch:type="MSPage">
        <g id="EMPOWER_rgb_logo" sketch:type="MSLayerGroup">
            <g id="Group" transform="translate(0.000000, 157.000000)" fill="#003087" sketch:type="MSShapeGroup">
                <path d="M0,1.7 L53.6,1.7 L53.6,15.6 L15.6,15.6 L15.6,30 L49,30 L49,43.9 L15.5,43.9 L15.5,58.8 L54,58.8 L54,72.7 L0,72.7 L0,1.7 L0,1.7 Z" id="Shape"></path>
                <path d="M66.4,1.7 L83.2,1.7 L101.9,31.7 L120.6,1.7 L137.4,1.7 L137.4,72.7 L121.9,72.7 L121.9,26.3 L101.9,56.6 L101.5,56.6 L81.7,26.6 L81.7,72.7 L66.4,72.7 L66.4,1.7 L66.4,1.7 Z" id="Shape"></path>
                <path d="M152.4,1.7 L181.4,1.7 C198.3,1.7 208.6,11.7 208.6,26.2 L208.6,26.4 C208.6,42.8 195.8,51.4 179.9,51.4 L168,51.4 L168,72.7 L152.4,72.7 L152.4,1.7 L152.4,1.7 Z M180.4,37.5 C188.2,37.5 192.8,32.8 192.8,26.7 L192.8,26.5 C192.8,19.5 187.9,15.7 180.1,15.7 L168,15.7 L168,37.4 L180.4,37.4 L180.4,37.5 Z" id="Shape"></path>
                <path d="M214.7,37.4 L214.7,37.2 C214.7,17 230.6,0.5 252.5,0.5 C274.4,0.5 290.1,16.8 290.1,37 L290.1,37.2 C290.1,57.4 274.2,73.9 252.3,73.9 C230.5,73.9 214.7,57.6 214.7,37.4 L214.7,37.4 Z M273.9,37.4 L273.9,37.2 C273.9,25 265,14.9 252.4,14.9 C239.8,14.9 231.1,24.8 231.1,37 L231.1,37.2 C231.1,49.4 240,59.5 252.6,59.5 C265.2,59.5 273.9,49.5 273.9,37.4 L273.9,37.4 Z" id="Shape"></path>
                <path d="M292,1.7 L308.7,1.7 L323.4,49.8 L339.3,1.5 L352.7,1.5 L368.6,49.8 L383.3,1.7 L399.6,1.7 L375.4,73.2 L361.8,73.2 L345.8,26.7 L329.8,73.2 L316.2,73.2 L292,1.7 L292,1.7 Z" id="Shape"></path>
                <path d="M407.7,1.7 L461.3,1.7 L461.3,15.6 L423.3,15.6 L423.3,30 L456.8,30 L456.8,43.9 L423.3,43.9 L423.3,58.8 L461.8,58.8 L461.8,72.7 L407.7,72.7 L407.7,1.7 L407.7,1.7 Z" id="Shape"></path>
                <path d="M474.1,1.7 L506.6,1.7 C515.6,1.7 522.6,4.2 527.3,8.9 C531.3,12.9 533.4,18.4 533.4,25.1 L533.4,25.3 C533.4,36.8 527.2,44 518.2,47.3 L535.5,72.7 L517.2,72.7 L502,49.9 L489.7,49.9 L489.7,72.6 L474.1,72.6 L474.1,1.7 L474.1,1.7 Z M505.5,36.2 C513.1,36.2 517.5,32.1 517.5,26.2 L517.5,26 C517.5,19.3 512.8,15.9 505.2,15.9 L489.7,15.9 L489.7,36.3 L505.5,36.3 L505.5,36.2 Z" id="Shape"></path>
            </g>
            <g id="Group" transform="translate(110.000000, 0.000000)" fill="#BA0C2F" sketch:type="MSShapeGroup">
                <path d="M425.4,17.9 C313.5,40.2 304.2,-9.3 208.8,1.6 L166.9,22.7 C265.9,11.5 273.2,71 407.8,33.9 C414,32.2 419.8,30.7 425.5,29.4 L425.5,17.9 L425.4,17.9 Z" id="Shape"></path>
                <path d="M425.4,42.5 C409,44.4 390.3,48 368.5,53.7 C231.3,89.6 228,31.7 125.7,43.4 L83.8,64.5 C182.8,53.3 190.1,112.8 324.7,75.7 C368.6,63.6 400,60.8 425.5,62.3 L425.5,42.5 L425.4,42.5 Z" id="Shape"></path>
                <path d="M425.4,88.4 C392.5,81.1 354.6,77.3 285.4,95.4 C148.2,131.3 144.9,73.4 42.6,85.1 L0.7,106.2 C99.7,95 107,154.5 241.6,117.4 C341.3,89.9 376.1,110.2 425.4,120.4 L425.4,88.4 L425.4,88.4 Z" id="Shape"></path>
            </g>
            <g id="Group" transform="translate(233.000000, 256.000000)" fill="#768692" sketch:type="MSShapeGroup">
                <path d="M0.5,0.3 L14.2,0.3 C18.1,0.3 21.1,1.4 23.1,3.4 C24.7,5.1 25.7,7.4 25.7,10 L25.7,10.1 C25.7,15.2 22.7,18.2 18.4,19.4 L26.7,31 L20.3,31 L12.7,20.3 L5.9,20.3 L5.9,31 L0.5,31 L0.5,0.3 L0.5,0.3 Z M13.9,15.6 C17.8,15.6 20.2,13.6 20.2,10.5 L20.2,10.4 C20.2,7.1 17.8,5.3 13.8,5.3 L5.9,5.3 L5.9,15.6 L13.9,15.6 L13.9,15.6 Z" id="Shape"></path>
                <path d="M33.6,0.3 L56.4,0.3 L56.4,5.1 L39,5.1 L39,13.1 L54.4,13.1 L54.4,17.9 L39,17.9 L39,26.2 L56.6,26.2 L56.6,31 L33.6,31 L33.6,0.3 L33.6,0.3 Z" id="Shape"></path>
                <path d="M72,5.3 L62.2,5.3 L62.2,0.3 L87.2,0.3 L87.2,5.3 L77.4,5.3 L77.4,31.1 L72,31.1 L72,5.3 L72,5.3 Z" id="Shape"></path>
                <path d="M94.5,0.3 L99.9,0.3 L99.9,31.1 L94.5,31.1 L94.5,0.3 L94.5,0.3 Z" id="Shape"></path>
                <path d="M109.5,0.3 L123.2,0.3 C127.1,0.3 130.1,1.4 132.1,3.4 C133.7,5.1 134.7,7.4 134.7,10 L134.7,10.1 C134.7,15.2 131.7,18.2 127.4,19.4 L135.7,31 L129.3,31 L121.7,20.3 L114.9,20.3 L114.9,31 L109.5,31 L109.5,0.3 L109.5,0.3 Z M122.8,15.6 C126.7,15.6 129.1,13.6 129.1,10.5 L129.1,10.4 C129.1,7.1 126.7,5.3 122.7,5.3 L114.8,5.3 L114.8,15.6 L122.8,15.6 L122.8,15.6 Z" id="Shape"></path>
                <path d="M142.6,0.3 L165.4,0.3 L165.4,5.1 L148,5.1 L148,13.1 L163.4,13.1 L163.4,17.9 L148,17.9 L148,26.2 L165.6,26.2 L165.6,31 L142.6,31 L142.6,0.3 L142.6,0.3 Z" id="Shape"></path>
                <path d="M173.4,0.3 L179.2,0.3 L188.6,14.9 L198,0.3 L203.8,0.3 L203.8,31.1 L198.4,31.1 L198.4,9 L188.7,23.5 L188.5,23.5 L178.9,9.1 L178.9,31.1 L173.6,31.1 L173.6,0.3 L173.4,0.3 Z" id="Shape"></path>
                <path d="M212.8,0.3 L235.6,0.3 L235.6,5.1 L218.2,5.1 L218.2,13.1 L233.6,13.1 L233.6,17.9 L218.2,17.9 L218.2,26.2 L235.8,26.2 L235.8,31 L212.8,31 L212.8,0.3 L212.8,0.3 Z" id="Shape"></path>
                <path d="M243.6,0.3 L248.6,0.3 L265.1,21.6 L265.1,0.3 L270.4,0.3 L270.4,31.1 L265.9,31.1 L248.9,9.2 L248.9,31.1 L243.6,31.1 L243.6,0.3 L243.6,0.3 Z" id="Shape"></path>
                <path d="M287.2,5.3 L277.4,5.3 L277.4,0.3 L302.4,0.3 L302.4,5.3 L292.6,5.3 L292.6,31.1 L287.1,31.1 L287.1,5.3 L287.2,5.3 Z" id="Shape"></path>
            </g>
            <g id="Group" transform="translate(543.000000, 256.000000)" fill="#768692" sketch:type="MSShapeGroup">
                <path d="M3.6,1.2 L0.1,1.2 L0.1,0.1 L8.3,0.1 L8.3,1.2 L4.8,1.2 L4.8,10.6 L3.6,10.6 L3.6,1.2 L3.6,1.2 Z" id="Shape"></path>
                <path d="M10.5,0.1 L11.7,0.1 L15.5,5.8 L19.3,0.1 L20.5,0.1 L20.5,10.6 L19.3,10.6 L19.3,2.1 L15.5,7.7 L15.4,7.7 L11.6,2.1 L11.6,10.6 L10.5,10.6 L10.5,0.1 L10.5,0.1 Z" id="Shape"></path>
            </g>
        </g>
    </g>
</svg>